# xmcd
#
# Track frame offsets: 
#        150
#        15721
#        45261
#        64929
#        75529
#        92344
#        107547
#        126331
#        157721
#        178884
#        221693
#
# Disc length: 3073 seconds
#
# Revision: 0
# Processed by: cddbd v1.5.2PL0 Copyright (c) Steve Scherf et al.
# Submitted via: ExactAudioCopy v1.0b3
#
DISCID=820bff0b
DTITLE=Manes - Teeth, Toes And Other Trinkets
DYEAR=2013
DGENRE=Avantgarde
TTITLE0=Blanket Of Ashes
TTITLE1=Ende (Live)
TTITLE2=Ease Yourself Back (Into Consiousness)
TTITLE3=The Cure-All (Rune Sørgård Remix)
TTITLE4=One More Room ('white Devil Black Shroud' Pre-Prod)
TTITLE5=Nobody Wants The Truth (Pre-Prod)
TTITLE6=Tzolv
TTITLE7=Transmigrant (Pre-Prod)
TTITLE8=Nodamnbrakes (Pre-Prod)
TTITLE9=Diving With Your Hands Bound [Nearly Flying] (Rehearsal 2002)
TTITLE10=Deeprooted (8-Bit)
EXTD=
EXTT0=
EXTT1=
EXTT2=
EXTT3=
EXTT4=
EXTT5=
EXTT6=
EXTT7=
EXTT8=
EXTT9=
EXTT10=
PLAYORDER=
